<svg xmlns="http://www.w3.org/2000/svg" width="807.86" height="581.582" viewBox="0 0 807.86 581.582">
    <g transform="translate(-556.07 -175)">
        <path d="M901.327,359.286c-29.238-21.858-75.032-42.53-125.639-56.714-46.078-12.915-91.021-19.151-126.56-17.559l-.185-4.133c35.962-1.611,81.372,4.677,127.862,17.708,51.079,14.317,97.369,35.232,127,57.384Z" transform="translate(360 15.791)" fill="#ccc"/>
        <path d="M898.291,376.122a137.673,137.673,0,0,1-11.915,56.209q-.987,2.222-2.056,4.4a138.194,138.194,0,0,1-262.378-60.611q0-4.8.327-9.519.155-2.4.4-4.774a138.181,138.181,0,0,1,275.621,14.293Z" transform="translate(360 15.791)" fill="#00b0ff"/>
        <path d="M886.377,432.331q-.987,2.222-2.056,4.4-6.056.658-12.75.956c-3.694.165-7.5.248-11.381.248-33.931,0-74.767-6.263-116.484-17.954-46.491-13.031-88.552-31.259-118.437-51.327q-1.527-1.024-3-2.052.155-2.4.4-4.774,2.377,1.694,4.9,3.392c29.534,19.828,71.172,37.862,117.25,50.777,41.353,11.592,81.8,17.8,115.347,17.8q5.752,0,11.215-.244Q879.34,433.2,886.377,432.331Z" transform="translate(360 15.791)" opacity="0.1"/>
        <path d="M860.191,434.627c-33.93,0-74.769-6.263-116.484-17.955-46.491-13.031-88.553-31.259-118.439-51.327-30.51-20.487-44.816-40.673-40.284-56.841s27.246-25.978,63.958-27.624l.185,4.133c-17.144.768-31.116,3.316-41.528,7.574-10.386,4.247-16.655,9.978-18.633,17.034s.4,15.21,7.065,24.236c6.682,9.048,17.294,18.487,31.542,28.054,29.53,19.829,71.17,37.863,117.249,50.778,41.354,11.591,81.8,17.8,115.347,17.8q5.749,0,11.213-.244c17.144-.768,31.117-3.316,41.528-7.574,10.386-4.247,16.655-9.978,18.633-17.033,3.551-12.669-7.18-29.132-30.217-46.354l2.477-3.313c11.855,8.863,20.63,17.6,26.082,25.965,5.845,8.969,7.743,17.32,5.641,24.819-4.532,16.168-27.246,25.978-63.958,27.624C867.875,434.545,864.075,434.627,860.191,434.627Z" transform="translate(360 15.791)" fill="#ccc"/>
        <circle cx="1.583" cy="1.583" r="1.583" transform="translate(1122.189 225.651)" fill="#f2f2f2"/>
        <circle cx="2.724" cy="2.724" r="2.724" transform="translate(910.991 292.077)" fill="#ccc"/>
        <circle cx="5.381" cy="5.381" r="5.381" transform="translate(902.528 396.032)" fill="#ccc"/>
        <circle cx="3.586" cy="3.586" r="3.586" transform="translate(1227.326 233.149)" fill="#ccc"/>
        <circle cx="5.823" cy="5.823" r="5.823" transform="translate(1352.284 379.756)" fill="#ccc"/>
        <circle cx="2.498" cy="2.498" r="2.498" transform="translate(1310.078 290.082)" fill="#ccc"/>
        <circle cx="3.897" cy="3.897" r="3.897" transform="translate(1005.346 256.588)" fill="#ccc"/>
        <circle cx="2.498" cy="2.498" r="2.498" transform="translate(1301.334 371.274)" fill="#ccc"/>
        <circle cx="3.109" cy="3.109" r="3.109" transform="translate(917.467 474.304)" fill="#ccc"/>
        <circle cx="3.367" cy="3.367" r="3.367" transform="translate(980.015 517.324)" fill="#ccc"/>
        <path d="M525.2,6.645h-6.645V0H514.99V6.645h-6.648v3.568h6.648v6.645h3.565V10.213H525.2Z" transform="translate(556.07 175)" fill="#ccc"/>
        <path d="M679.342,366.2h-4.174v-4.172H672.93V366.2h-4.172v2.239h4.172v4.172h2.238V368.44h4.174Z" transform="translate(556.07 175)" fill="#ccc"/>
        <path d="M775.646,344.844h-3.119v-3.119h-1.675v3.119h-3.119v1.675h3.119v3.119h1.675v-3.119h3.119Z" transform="translate(556.07 175)" fill="#ccc"/>
        <circle cx="11.611" cy="11.611" r="11.611" transform="translate(1110.578 272.106)" opacity="0.1"/>
        <circle cx="11.611" cy="11.611" r="11.611" transform="translate(1021.383 357.079)" opacity="0.1"/>
        <circle cx="11.611" cy="11.611" r="11.611" transform="translate(1149.633 473.719)" opacity="0.1"/>
        <circle cx="11.611" cy="11.611" r="11.611" transform="translate(1110.578 375.024)" opacity="0.1"/>
        <circle cx="11.611" cy="11.611" r="11.611" transform="translate(1027.188 438.885)" opacity="0.1"/>
        <circle cx="11.611" cy="11.611" r="11.611" transform="translate(1172.856 312.746)" opacity="0.1"/>
        <circle cx="11.611" cy="11.611" r="11.611" transform="translate(1211.384 391.385)" opacity="0.1"/>
        <circle cx="15.306" cy="15.306" r="15.306" transform="translate(1106.884 320.662)" fill="#fff"/>
        <path d="M762.189,298.01a21.639,21.639,0,0,0-21.639,21.639c0,11.951,21.639,51.195,21.639,51.195s21.639-39.244,21.639-51.195A21.639,21.639,0,0,0,762.189,298.01Zm0,32.195a10.028,10.028,0,1,1,10.028-10.028A10.028,10.028,0,0,1,762.189,330.2Z" transform="translate(360 15.791)" fill="#ccc"/>
        <circle cx="15.306" cy="15.306" r="15.306" transform="translate(1023.494 386.107)" fill="#fff"/>
        <path d="M678.8,363.455a21.639,21.639,0,0,0-21.639,21.639c0,11.951,21.639,51.195,21.639,51.195s21.639-39.244,21.639-51.195A21.639,21.639,0,0,0,678.8,363.455Zm0,32.195a10.028,10.028,0,1,1,10.028-10.028A10.028,10.028,0,0,1,678.8,395.65Z" transform="translate(360 15.791)" fill="#ccc"/>
        <circle cx="15.306" cy="15.306" r="15.306" transform="translate(1207.689 338.606)" fill="#fff"/>
        <path d="M862.995,315.955a21.639,21.639,0,0,0-21.639,21.639c0,11.951,21.639,51.195,21.639,51.195s21.639-39.244,21.639-51.195a21.639,21.639,0,0,0-21.639-21.639Zm0,32.195a10.028,10.028,0,1,1,10.028-10.028,10.028,10.028,0,0,1-10.028,10.028Z" transform="translate(360 15.791)" fill="#ccc"/>
        <circle cx="15.306" cy="15.306" r="15.306" transform="translate(1106.884 217.745)" fill="#fff"/>
        <path d="M762.189,195.093a21.639,21.639,0,0,0-21.639,21.639c0,11.951,21.639,51.195,21.639,51.195s21.639-39.244,21.639-51.195a21.639,21.639,0,0,0-21.639-21.639Zm0,32.195a10.028,10.028,0,1,1,10.028-10.028,10.028,10.028,0,0,1-10.028,10.028Z" transform="translate(360 15.791)" fill="#ccc"/>
        <circle cx="15.306" cy="15.306" r="15.306" transform="translate(1145.938 420.94)" fill="#fff"/>
        <path d="M801.245,398.289a21.639,21.639,0,0,0-21.639,21.639c0,11.951,21.639,51.195,21.639,51.195s21.639-39.244,21.639-51.195A21.639,21.639,0,0,0,801.245,398.289Zm0,32.195a10.028,10.028,0,1,1,10.028-10.028,10.028,10.028,0,0,1-10.028,10.028Z" transform="translate(360 15.791)" fill="#e53d3d"/>
        <circle cx="15.306" cy="15.306" r="15.306" transform="translate(1017.688 303.245)" fill="#fff"/>
        <path d="M672.994,280.593a21.639,21.639,0,0,0-21.639,21.639c0,11.951,21.639,51.195,21.639,51.195s21.639-39.244,21.639-51.195a21.639,21.639,0,0,0-21.639-21.639Zm0,32.195a10.028,10.028,0,1,1,10.028-10.028A10.028,10.028,0,0,1,672.994,312.788Z" transform="translate(360 15.791)" fill="#e53d3d"/>
        <circle cx="15.306" cy="15.306" r="15.306" transform="translate(1169.161 260.495)" fill="#fff"/>
        <path d="M824.467,237.843a21.639,21.639,0,0,0-21.639,21.639c0,11.951,21.639,51.195,21.639,51.195s3.781-6.857,8.306-15.961c6-12.078,13.333-28.278,13.333-35.234a21.639,21.639,0,0,0-21.639-21.639Zm0,32.195a10.028,10.028,0,1,1,10.028-10.028,10.028,10.028,0,0,1-10.028,10.028h0Z" transform="translate(360 15.791)" fill="#e53d3d"/>
        <path d="M188.862,569.715l12.182-1.383.465-47.644-17.979,2.041Z" transform="translate(556.07 175)" fill="#ffb8b8"/>
        <path d="M382.643,723.52h38.531v14.887H397.53a14.887,14.887,0,0,1-14.887-14.887h0Z" transform="translate(1243.673 1427.74) rotate(173.526)" fill="#b2b0e5"/>
        <path d="M63.582,568.954h12.26l5.832-47.288H63.58Z" transform="translate(556.07 175)" fill="#ffb8b8"/>
        <path d="M257.025,724.659h38.531v14.887H271.912a14.887,14.887,0,0,1-14.887-14.887h0Z" transform="translate(912.615 1479.984) rotate(179.997)" fill="#b2b0e5"/>
        <path d="M347.614,516.7l7,22.769,38,82.231,10,78-23,1-14-72-48-52-42,136-19-2s16-176,38-194C294.614,516.7,330.614,499.7,347.614,516.7Z" transform="translate(360 15.791)" fill="#b2b0e5"/>
        <circle cx="24.561" cy="24.561" r="24.561" transform="translate(652.001 385.118)" fill="#ffb8b8" stroke="#707070" stroke-width="1"/>
        <path d="M350.114,521.2s3-102-39-95-24.5,105.5-24.5,105.5,9,18,31-2S350.114,521.2,350.114,521.2Z" transform="translate(360 15.791)" fill="#ccc"/>
        <path d="M96.044,309.986l9.883,37.883,15.057,15.058-20.94-6.941Z" transform="translate(556.07 175)" opacity="0.2"/>
        <path d="M350.424,564.333a10.056,10.056,0,0,1-5.277-14.488L321.788,522.8l18.414-2.4,19.359,26.048a10.11,10.11,0,0,1-9.137,17.88Z" transform="translate(360 15.791)" fill="#ffb8b8"/>
        <path d="M321.984,446.971l2.63,51.724,31,40-13,10-42-42s-15-51-4-66c4.125-5.625,8.672-7.172,12.744-6.908A13.78,13.78,0,0,1,321.984,446.971Z" transform="translate(360 15.791)" fill="#ccc"/>
        <g transform="translate(360 15.791)" fill="#2f2e41">
            <path d="M 239.609619140625 493.8228759765625 C 238.4022064208984 493.8228759765625 237.1965942382813 493.7317199707031 236.0262756347656 493.5519104003906 C 233.4423065185547 493.1548767089844 230.9138031005859 492.296142578125 228.510986328125 490.9994812011719 C 226.1900787353516 489.7470397949219 224.0359802246094 488.1150207519531 222.1085205078125 486.1487426757813 C 218.270263671875 482.2331848144531 215.5672607421875 477.1972961425781 214.4974670410156 471.9687194824219 C 213.4485168457031 466.8421936035156 213.7722015380859 461.2725219726563 215.4334869384766 455.8618774414063 C 217.0362243652344 450.6419067382813 219.8277435302734 445.6982116699219 223.5062561035156 441.5652465820313 C 227.0453948974609 437.5888671875 231.4281158447266 434.2017211914063 236.5326843261719 431.4979553222656 C 241.3248596191406 428.9595947265625 246.6210021972656 427.0860595703125 252.2739562988281 425.9293823242188 C 252.7437591552734 425.8332214355469 253.2317199707031 425.73681640625 253.7036285400391 425.6435852050781 C 258.6627502441406 424.6638488769531 264.2835083007813 423.5533752441406 267.4901123046875 419.1750183105469 C 270.8131103515625 414.6377868652344 269.9703979492188 408.7671508789063 269.2268676757813 403.5875854492188 C 269.0721130371094 402.5094299316406 268.9259338378906 401.4910583496094 268.8117370605469 400.4798278808594 C 267.9951477050781 393.2473754882813 269.2171630859375 385.9508972167969 272.3456726074219 379.3791809082031 C 275.4741516113281 372.8074340820313 280.3672485351563 367.2585754394531 286.4959106445313 363.3324890136719 C 292.7757263183594 359.3095397949219 300.0373840332031 357.1831359863281 307.4957885742188 357.1831359863281 C 314.5948486328125 357.1831359863281 321.5586547851563 359.1245422363281 327.6343688964844 362.7974243164063 C 330.3760375976563 364.4548034667969 332.6390686035156 366.3283081054688 334.3606262207031 368.3659362792969 C 336.31640625 370.6807861328125 337.5561828613281 373.2005615234375 338.0455322265625 375.8552551269531 L 338.0486145019531 375.8720092773438 L 338.0520629882813 375.888671875 C 338.6973266601563 378.9924621582031 337.9635925292969 382.2150268554688 336.038818359375 384.7332763671875 C 334.7623901367188 386.3094482421875 333.1249084472656 387.3832397460938 330.8870544433594 388.1120300292969 C 328.7911682128906 388.7945861816406 326.4755859375 389.0821228027344 324.0240478515625 389.386474609375 C 320.7198181152344 389.7967834472656 317.3030700683594 390.2209777832031 314.2283935546875 391.6869812011719 C 309.0128784179688 394.1722412109375 305.5757751464844 399.3000183105469 305.2586975097656 405.0690002441406 C 305.0035400390625 409.7116088867188 306.8020935058594 414.1626586914063 310.0742797851563 417.309326171875 C 308.6354370117188 416.9205932617188 307.133544921875 416.7246704101563 305.5819396972656 416.7246704101563 C 297.4902648925781 416.7246704101563 288.7690124511719 422.0852661132813 283.8802795410156 430.0638427734375 C 279.7181091308594 436.8565979003906 277.8300170898438 444.66357421875 276.0041198730469 452.2135009765625 C 275.2388610839844 455.3777770996094 274.4475402832031 458.6497802734375 273.5026550292969 461.7752075195313 C 270.5015258789063 471.7024230957031 266.0255737304688 479.5357360839844 260.1991577148438 485.0575561523438 C 257.3924865722656 487.7174987792969 254.0796356201172 489.9201965332031 250.6188049316406 491.4274597167969 C 246.9691619873047 493.0169372558594 243.26513671875 493.8228759765625 239.609619140625 493.8228759765625 Z" stroke="none"/>
            <path d="M 307.4957885742188 358.6831359863281 C 300.32470703125 358.6831359863281 293.3428955078125 360.7276306152344 287.3050537109375 364.5955200195313 C 281.4125061035156 368.370361328125 276.7079772949219 373.7054138183594 273.7000122070313 380.02392578125 C 270.6920776367188 386.3424377441406 269.5171508789063 393.3577575683594 270.3022766113281 400.3115234375 C 270.4139404296875 401.30029296875 270.5585632324219 402.3077697753906 270.711669921875 403.3744201660156 C 271.4959411621094 408.8379211425781 272.3848571777344 415.0303649902344 268.7002868652344 420.0613098144531 C 265.1480712890625 424.9115905761719 259.222412109375 426.082275390625 253.9943237304688 427.1151733398438 C 253.5032653808594 427.212158203125 253.0394897460938 427.3038024902344 252.5746765136719 427.39892578125 C 247.0617370605469 428.5269470214844 241.900634765625 430.35205078125 237.2347717285156 432.823486328125 C 232.2886352539063 435.443359375 228.0466918945313 438.7200317382813 224.626708984375 442.5625305175781 C 221.0904541015625 446.53564453125 218.4073486328125 451.2867431640625 216.8674011230469 456.3021545410156 C 215.2796325683594 461.4734191894531 214.96826171875 466.786865234375 215.9670104980469 471.6680603027344 C 216.9796142578125 476.6171264648438 219.5411376953125 481.3869018554688 223.1796875 485.0986938476563 C 225.0016784667969 486.9573669433594 227.0350341796875 488.49853515625 229.2233276367188 489.679443359375 C 231.4747009277344 490.8943786621094 233.8401794433594 491.6984252929688 236.2540588378906 492.0693054199219 C 237.3493041992188 492.2375793457031 238.4782409667969 492.3229064941406 239.609619140625 492.3229064941406 C 243.0578002929688 492.3229064941406 246.560302734375 491.5589294433594 250.0198669433594 490.0522155761719 C 253.3226318359375 488.6138000488281 256.4857788085938 486.5101928710938 259.1673583984375 483.9688110351563 C 264.8020935058594 478.6286315917969 269.1421203613281 471.0155944824219 272.0668334960938 461.3411254882813 C 272.99951171875 458.2561340332031 273.7857666015625 455.0049743652344 274.5461730957031 451.86083984375 C 276.3993835449219 444.1980285644531 278.315673828125 436.2743225097656 282.6012573242188 429.2801208496094 C 287.7520751953125 420.8739013671875 296.9871826171875 415.2254638671875 305.5816650390625 415.2246704101563 C 305.8740844726563 415.2246398925781 306.1651306152344 415.2311096191406 306.4543151855469 415.243896484375 C 304.5368041992188 412.2439575195313 303.5584716796875 408.6704711914063 303.7609558105469 404.9866943359375 C 304.108154296875 398.6694030761719 307.8719177246094 393.0543212890625 313.5828247070313 390.3330078125 C 316.8769836425781 388.7623901367188 320.4163513183594 388.3229064941406 323.8392028808594 387.89794921875 C 328.4278564453125 387.3281860351563 332.3926391601563 386.8359680175781 334.860107421875 383.8052673339844 C 336.5104675292969 381.6358032226563 337.1385192871094 378.8639526367188 336.5834655761719 376.1939697265625 L 336.5765380859375 376.1606140136719 L 336.5703735351563 376.1271667480469 C 336.1289672851563 373.7324523925781 335 371.4468994140625 333.2148132324219 369.333984375 C 331.5987548828125 367.4212341308594 329.4601440429688 365.6539001464844 326.8583679199219 364.0810852050781 C 321.0167846679688 360.5497131347656 314.3212890625 358.6831359863281 307.4957885742188 358.6831359863281 M 307.4957885742188 355.6831359863281 C 314.7315063476563 355.6831359863281 321.975341796875 357.6236267089844 328.4103698730469 361.5137329101563 C 333.6712646484375 364.6940307617188 338.3688354492188 369.3345947265625 339.5206604003906 375.5833435058594 C 340.25537109375 379.117431640625 339.4147338867188 382.7962951660156 337.218017578125 385.6605529785156 C 331.8800048828125 392.2765197753906 322.094970703125 389.5980529785156 314.8739318847656 393.0409545898438 C 310.156494140625 395.2888793945313 307.043212890625 399.9335632324219 306.7564392089844 405.1513366699219 C 306.4696655273438 410.3690795898438 309.0552062988281 415.3269653320313 313.4978637695313 418.0783386230469 C 313.7694702148438 418.2463989257813 313.9459533691406 418.5326843261719 313.9741516113281 418.850830078125 C 314.0023193359375 419.1690063476563 313.8788757324219 419.4818420410156 313.6409912109375 419.6950073242188 L 313.640869140625 419.6949462890625 C 313.4502563476563 419.8619995117188 313.2098388671875 419.9483337402344 312.9671020507813 419.9483337402344 C 312.8057861328125 419.9483337402344 312.6434326171875 419.9101867675781 312.4941711425781 419.8322143554688 C 310.2923278808594 418.7241821289063 307.9516906738281 418.2244567871094 305.5819396972656 418.2246704101563 C 297.69384765625 418.2253723144531 289.4987182617188 423.7654113769531 285.1592712402344 430.8475036621094 C 279.392578125 440.2588806152344 278.1326293945313 451.6438903808594 274.9384765625 462.2092895507813 C 272.2473754882813 471.1109924316406 267.9807739257813 479.7493896484375 261.2309875488281 486.1463012695313 C 255.411865234375 491.6612243652344 247.5552673339844 495.3228759765625 239.6095886230469 495.3228759765625 C 238.3388671875 495.3228759765625 237.0658264160156 495.2292175292969 235.7984924316406 495.0345153808594 C 224.5059814453125 493.2994995117188 215.318115234375 483.4626159667969 213.0278930664063 472.2694091796875 C 210.7376708984375 461.0762023925781 214.7898864746094 449.102294921875 222.3857727050781 440.5679931640625 C 229.9816589355469 432.03369140625 240.7801513671875 426.7501220703125 251.9732666015625 424.4598083496094 C 257.1918334960938 423.3919982910156 263.1326293945313 422.586181640625 266.2799682617188 418.2887268066406 C 269.8560485839844 413.4059448242188 268.0003051757813 406.6622619628906 267.3212280273438 400.6481323242188 C 265.5927734375 385.3397521972656 272.7146606445313 370.3795166015625 285.6867980957031 362.0694274902344 C 292.3272705078125 357.8154602050781 299.9071960449219 355.6831359863281 307.4957885742188 355.6831359863281 Z" stroke="none" fill="#f5e3e3"/>
        </g>
        <path d="M504.07,740.791h-307a1,1,0,1,1,0-2h307a1,1,0,0,1,0,2Z" transform="translate(360 15.791)" fill="#b2b0e5"/>
    </g>
</svg>