<svg xmlns="http://www.w3.org/2000/svg" xmlns:xlink="http://www.w3.org/1999/xlink" width="95" height="96" viewBox="0 0 95 96"><defs><filter id="a" x="8.436" y="1.278" width="84.128" height="81.444" filterUnits="userSpaceOnUse"><feOffset dy="6" input="SourceAlpha"/><feGaussianBlur stdDeviation="6" result="b"/><feFlood flood-opacity="0.161"/><feComposite operator="in" in2="b"/><feComposite in="SourceGraphic"/></filter><filter id="c" x="10" y="53" width="82" height="40" filterUnits="userSpaceOnUse"><feOffset dy="3" input="SourceAlpha"/><feGaussianBlur stdDeviation="3" result="d"/><feFlood flood-opacity="0.161"/><feComposite operator="in" in2="d"/><feComposite in="SourceGraphic"/></filter></defs><path d="M47.5,0C73.734,0,95,21.49,95,48S73.734,96,47.5,96,0,74.51,0,48,21.266,0,47.5,0Z" fill="#f54c5f"/><g transform="matrix(1, 0, 0, 1, 0, 0)" filter="url(#a)"><path d="M1.719,2.781a1,1,0,0,0-.781,1V39.469c0,4.246,2.207,6.641,4.375,7.719a10.264,10.264,0,0,0,4.313,1.031h30.75v-.094c.48.055,1,.094,1,.094a8.433,8.433,0,0,0,3.844-1.094c1.875-1.078,3.723-3.359,3.813-7.312a.467.467,0,0,0,.031-.062v-.062a1.045,1.045,0,0,0,0-.156V14.406a5.668,5.668,0,0,0-.594-2.375,4.664,4.664,0,0,0-4.25-2.5V9.5H34.75v2h5.563A4.369,4.369,0,0,0,40,12a5.98,5.98,0,0,0-.625,2.375v24.25a1,1,0,1,0,2,0V14.375a3.961,3.961,0,0,1,.406-1.469,2.337,2.337,0,0,1,2.438-1.375,2.341,2.341,0,0,1,2.438,1.406,4.458,4.458,0,0,1,.438,1.5h-.031V39.531c0,3.559-1.422,5.059-2.844,5.875a6.292,6.292,0,0,1-2.844.813A8.6,8.6,0,0,1,38,45.344c-1.684-.852-3.312-2.348-3.312-5.875V3.781a1,1,0,0,0-1-1H1.938A1.024,1.024,0,0,0,1.719,2.781Zm1.219,2h29.75V39.469a8.258,8.258,0,0,0,3.031,6.75H9.594a7.276,7.276,0,0,1-1.062-.094,8.472,8.472,0,0,1-1.062-.25,7.839,7.839,0,0,1-1.25-.469,6.994,6.994,0,0,1-.625-.344c-1.43-.9-2.656-2.449-2.656-5.594Zm4,6.219a1.01,1.01,0,0,0,.281,2H26.938a1,1,0,1,0,0-2h-20Zm0,4a1.01,1.01,0,0,0,.281,2H26.938a1,1,0,1,0,0-2h-20Zm.469,8a1.01,1.01,0,0,0,.281,2h6.781a1,1,0,1,0,0-2H7.406Zm11.531,0a1.01,1.01,0,1,0,.281,2h7.719a1,1,0,1,0,0-2h-8ZM7.406,27a1.01,1.01,0,0,0,.281,2h6.781a1,1,0,1,0,0-2H7.406Zm11.531,0a1.01,1.01,0,1,0,.281,2h7.719a1,1,0,1,0,0-2h-8Zm0,3.781a1.01,1.01,0,1,0,.281,2h7.719a1,1,0,1,0,0-2H19.219a.745.745,0,0,0-.187,0ZM7.406,31a1.01,1.01,0,0,0,.281,2h6.781a1,1,0,1,0,0-2H7.406Zm11.531,3.781a1.01,1.01,0,1,0,.281,2h7.719a1,1,0,1,0,0-2H19.219a.745.745,0,0,0-.187,0ZM7.406,35a1.01,1.01,0,0,0,.281,2h6.781a1,1,0,1,0,0-2H7.406Zm11.531,3.531a1.01,1.01,0,1,0,.281,2h7.719a1,1,0,1,0,0-2h-8ZM7.406,39a1.01,1.01,0,0,0,.281,2h6.781a1,1,0,1,0,0-2H7.406Z" transform="translate(25.5 10.5)" fill="#f6f4f4"/></g><g transform="matrix(1, 0, 0, 1, 0, 0)" filter="url(#c)"><text transform="translate(19 76)" fill="#fffefe" font-size="18" font-family="ProductSans-Regular, Product Sans"><tspan x="0" y="0">Newsify</tspan></text></g></svg>