<svg xmlns="http://www.w3.org/2000/svg" xmlns:xlink="http://www.w3.org/1999/xlink" width="95" height="96" viewBox="0 0 95 96"><defs><filter id="a" x="8.436" y="1.278" width="84.128" height="81.444" filterUnits="userSpaceOnUse"><feOffset dy="6" input="SourceAlpha"/><feGaussianBlur stdDeviation="6" result="b"/><feFlood flood-opacity="0.161"/><feComposite operator="in" in2="b"/><feComposite in="SourceGraphic"/></filter><filter id="c" x="10" y="53" width="82" height="40" filterUnits="userSpaceOnUse"><feOffset dy="3" input="SourceAlpha"/><feGaussianBlur stdDeviation="3" result="d"/><feFlood flood-opacity="0.161"/><feComposite operator="in" in2="d"/><feComposite in="SourceGraphic"/></filter></defs><g fill="#f54c5f"><path d="M 47.5 95.5 C 41.15547561645508 95.5 35.00093841552734 94.24442291259766 29.20736312866211 91.76816558837891 C 23.61083793640137 89.37611389160156 18.58444976806641 85.95148468017578 14.26782512664795 81.58942413330078 C 9.950849533081055 77.22699737548828 6.561524868011475 72.14706420898438 4.194012641906738 66.49071502685547 C 1.742849946022034 60.63449859619141 0.5 54.41332626342773 0.5 48 C 0.5 41.58667373657227 1.742849946022034 35.36550140380859 4.194012641906738 29.50928688049316 C 6.561524868011475 23.85293769836426 9.950849533081055 18.77300071716309 14.26782512664795 14.4105749130249 C 18.58444976806641 10.04851245880127 23.61083793640137 6.623887538909912 29.20736312866211 4.231837272644043 C 35.00093841552734 1.755574941635132 41.15547561645508 0.5 47.5 0.5 C 53.84452438354492 0.5 59.99906158447266 1.755574941635132 65.79264068603516 4.231837272644043 C 71.38916015625 6.623887538909912 76.41555023193359 10.04851245880127 80.732177734375 14.4105749130249 C 85.04914855957031 18.77300071716309 88.4384765625 23.85293769836426 90.80598449707031 29.50928688049316 C 93.25714874267578 35.36550140380859 94.5 41.58667373657227 94.5 48 C 94.5 54.41332626342773 93.25714874267578 60.63449859619141 90.80598449707031 66.49071502685547 C 88.4384765625 72.14706420898438 85.04914855957031 77.22699737548828 80.732177734375 81.58942413330078 C 76.41555023193359 85.95148468017578 71.38916015625 89.37611389160156 65.79264068603516 91.76816558837891 C 59.99906158447266 94.24442291259766 53.84452438354492 95.5 47.5 95.5 Z" stroke="none"/><path d="M 47.5 1 C 41.2234001159668 1 35.13498687744141 2.242042541503906 29.40387725830078 4.691612243652344 C 23.86708068847656 7.058120727539063 18.89415740966797 10.44638824462891 14.62322998046875 14.76226806640625 C 10.35158538818359 19.07888031005859 6.99786376953125 24.10543823242188 4.655242919921875 29.70233154296875 C 2.22979736328125 35.4970817565918 1 41.65330505371094 1 48 C 1 54.34669494628906 2.22979736328125 60.5029182434082 4.655242919921875 66.29766845703125 C 6.99786376953125 71.89456176757813 10.35158538818359 76.92111968994141 14.62322998046875 81.23773193359375 C 18.89415740966797 85.55361175537109 23.86708068847656 88.94187927246094 29.40387725830078 91.30838775634766 C 35.13498687744141 93.75795745849609 41.2234001159668 95 47.5 95 C 53.7765998840332 95 59.86501312255859 93.75795745849609 65.59612274169922 91.30838775634766 C 71.13291931152344 88.94187927246094 76.10584259033203 85.55361175537109 80.37677001953125 81.23773193359375 C 84.64841461181641 76.92111968994141 88.00213623046875 71.89456176757813 90.34475708007813 66.29766845703125 C 92.77020263671875 60.5029182434082 94 54.34669494628906 94 48 C 94 41.65330505371094 92.77020263671875 35.4970817565918 90.34475708007813 29.70233154296875 C 88.00213623046875 24.10543823242188 84.64841461181641 19.07888031005859 80.37677001953125 14.76226806640625 C 76.10584259033203 10.44638824462891 71.13291931152344 7.058120727539063 65.59612274169922 4.691612243652344 C 59.86501312255859 2.242042541503906 53.7765998840332 1 47.5 1 M 47.5 0 C 73.7335205078125 0 95 21.49033355712891 95 48 C 95 74.50966644287109 73.7335205078125 96 47.5 96 C 21.2664794921875 96 0 74.50966644287109 0 48 C 0 21.49033355712891 21.2664794921875 0 47.5 0 Z" stroke="none" fill="#707070"/></g><g transform="matrix(1, 0, 0, 1, 0, 0)" filter="url(#a)"><path d="M1.719,2.781a1,1,0,0,0-.781,1V39.469c0,4.246,2.207,6.641,4.375,7.719a10.264,10.264,0,0,0,4.313,1.031h30.75v-.094c.48.055,1,.094,1,.094a8.433,8.433,0,0,0,3.844-1.094c1.875-1.078,3.723-3.359,3.813-7.312a.467.467,0,0,0,.031-.062v-.062a1.045,1.045,0,0,0,0-.156V14.406a5.668,5.668,0,0,0-.594-2.375,4.664,4.664,0,0,0-4.25-2.5V9.5H34.75v2h5.563A4.369,4.369,0,0,0,40,12a5.98,5.98,0,0,0-.625,2.375v24.25a1,1,0,1,0,2,0V14.375a3.961,3.961,0,0,1,.406-1.469,2.337,2.337,0,0,1,2.438-1.375,2.341,2.341,0,0,1,2.438,1.406,4.458,4.458,0,0,1,.438,1.5h-.031V39.531c0,3.559-1.422,5.059-2.844,5.875a6.292,6.292,0,0,1-2.844.813A8.6,8.6,0,0,1,38,45.344c-1.684-.852-3.312-2.348-3.312-5.875V3.781a1,1,0,0,0-1-1H1.938A1.024,1.024,0,0,0,1.719,2.781Zm1.219,2h29.75V39.469a8.258,8.258,0,0,0,3.031,6.75H9.594a7.276,7.276,0,0,1-1.062-.094,8.472,8.472,0,0,1-1.062-.25,7.839,7.839,0,0,1-1.25-.469,6.994,6.994,0,0,1-.625-.344c-1.43-.9-2.656-2.449-2.656-5.594Zm4,6.219a1.01,1.01,0,0,0,.281,2H26.938a1,1,0,1,0,0-2h-20Zm0,4a1.01,1.01,0,0,0,.281,2H26.938a1,1,0,1,0,0-2h-20Zm.469,8a1.01,1.01,0,0,0,.281,2h6.781a1,1,0,1,0,0-2H7.406Zm11.531,0a1.01,1.01,0,1,0,.281,2h7.719a1,1,0,1,0,0-2h-8ZM7.406,27a1.01,1.01,0,0,0,.281,2h6.781a1,1,0,1,0,0-2H7.406Zm11.531,0a1.01,1.01,0,1,0,.281,2h7.719a1,1,0,1,0,0-2h-8Zm0,3.781a1.01,1.01,0,1,0,.281,2h7.719a1,1,0,1,0,0-2H19.219a.745.745,0,0,0-.187,0ZM7.406,31a1.01,1.01,0,0,0,.281,2h6.781a1,1,0,1,0,0-2H7.406Zm11.531,3.781a1.01,1.01,0,1,0,.281,2h7.719a1,1,0,1,0,0-2H19.219a.745.745,0,0,0-.187,0ZM7.406,35a1.01,1.01,0,0,0,.281,2h6.781a1,1,0,1,0,0-2H7.406Zm11.531,3.531a1.01,1.01,0,1,0,.281,2h7.719a1,1,0,1,0,0-2h-8ZM7.406,39a1.01,1.01,0,0,0,.281,2h6.781a1,1,0,1,0,0-2H7.406Z" transform="translate(25.5 10.5)" fill="#f6f4f4"/></g><g transform="matrix(1, 0, 0, 1, 0, 0)" filter="url(#c)"><text transform="translate(19 76)" fill="#fffefe" font-size="18" font-family="ProductSans-Regular, Product Sans"><tspan x="0" y="0">Newsify</tspan></text></g></svg>