<svg xmlns="http://www.w3.org/2000/svg" width="578.479" height="621.926" viewBox="0 0 578.479 621.926"><g transform="translate(-0.004 0)"><path d="M677.642,491.9,427.793,556.236a33.037,33.037,0,0,1-40.187-23.728l-75.56-293.427a33.037,33.037,0,0,1,23.728-40.187l232.444-59.857,59.494,26.634L701.37,451.71A33.037,33.037,0,0,1,677.642,491.9Z" transform="translate(-310.999 -139.037)" fill="#f2f2f2"/><path d="M338.143,208.094a23.526,23.526,0,0,0-16.9,28.618l75.561,293.427a23.527,23.527,0,0,0,28.618,16.9L675.274,482.7a23.526,23.526,0,0,0,16.9-28.618L619.654,172.472l-52.285-23.406Z" transform="translate(-310.999 -139.037)" fill="#fff"/><path d="M627.077,167.185l-38.667,9.957a10.991,10.991,0,0,1-13.384-7.9l-7.354-28.56a.687.687,0,0,1,.944-.8l58.57,26.011a.687.687,0,0,1-.108,1.293Z" transform="translate(-310.999 -139.037)" fill="#f2f2f2"/><path d="M606.734,417.765,492.982,447.058a5.5,5.5,0,0,1-2.741-10.643l113.753-29.293a5.5,5.5,0,1,1,2.741,10.644Z" transform="translate(-310.999 -139.037)" fill="#ccc"/><path d="M633.312,430.073,497.607,465.019a5.5,5.5,0,0,1-2.741-10.644l135.7-34.946a5.5,5.5,0,1,1,2.741,10.644Z" transform="translate(-310.999 -139.037)" fill="#ccc"/><circle cx="19.423" cy="19.423" r="19.423" transform="translate(116.132 304.455)" fill="#e6e6e6"/><path d="M594.639,366.934,443.564,405.823a17.019,17.019,0,0,1-20.7-12.226L391.2,270.606a17.019,17.019,0,0,1,12.225-20.7L554.5,211.016a17.019,17.019,0,0,1,20.7,12.225l31.66,122.991a17.019,17.019,0,0,1-12.226,20.7Z" transform="translate(-310.999 -139.037)" fill="#fff"/><path d="M594.639,366.934,443.564,405.823a17.019,17.019,0,0,1-20.7-12.226L391.2,270.606a17.019,17.019,0,0,1,12.225-20.7L554.5,211.016a17.019,17.019,0,0,1,20.7,12.225l31.66,122.991a17.019,17.019,0,0,1-12.226,20.7ZM403.927,251.842a15.017,15.017,0,0,0-10.787,18.266L424.8,393.1a15.017,15.017,0,0,0,18.266,10.787L594.14,365a15.017,15.017,0,0,0,10.787-18.266L573.268,223.74A15.017,15.017,0,0,0,555,212.953Z" transform="translate(-310.999 -139.037)" fill="#e6e6e6"/><path d="M546.839,252.371,470.593,272a2.731,2.731,0,0,1-3.308-1.719,2.631,2.631,0,0,1,1.853-3.339l77.613-19.979c3.135,1.589,2.31,4.838.087,5.41Z" transform="translate(-310.999 -139.037)" fill="#f2f2f2"/><path d="M550.282,265.745l-76.246,19.627a2.731,2.731,0,0,1-3.308-1.719,2.631,2.631,0,0,1,1.853-3.339l77.613-19.979c3.135,1.589,2.31,4.838.087,5.41Z" transform="translate(-310.999 -139.037)" fill="#f2f2f2"/><path d="M459.514,297.229l-23.269,5.99a2.962,2.962,0,0,1-3.6-2.128l-7.069-27.46a2.962,2.962,0,0,1,2.128-3.6l23.269-5.99a2.963,2.963,0,0,1,3.6,2.128l7.069,27.46a2.962,2.962,0,0,1-2.128,3.6Z" transform="translate(-310.999 -139.037)" fill="#e6e6e6"/><path d="M557.109,293.185,440.744,323.139a2.731,2.731,0,0,1-3.308-1.719,2.631,2.631,0,0,1,1.853-3.339l117.734-30.306c3.135,1.589,2.31,4.838.087,5.41Z" transform="translate(-310.999 -139.037)" fill="#f2f2f2"/><path d="M560.553,306.563,444.188,336.517a2.731,2.731,0,0,1-3.308-1.719,2.631,2.631,0,0,1,1.853-3.339l117.733-30.306c3.135,1.589,2.31,4.838.087,5.41Z" transform="translate(-310.999 -139.037)" fill="#f2f2f2"/><path d="M563.994,319.932,447.63,349.886a2.731,2.731,0,0,1-3.308-1.719,2.631,2.631,0,0,1,1.853-3.339l117.733-30.306c3.135,1.589,2.31,4.838.087,5.41Z" transform="translate(-310.999 -139.037)" fill="#f2f2f2"/><path d="M567.438,333.309,451.073,363.263a2.731,2.731,0,0,1-3.309-1.719,2.631,2.631,0,0,1,1.853-3.339L567.351,327.9c3.135,1.589,2.31,4.838.087,5.41Z" transform="translate(-310.999 -139.037)" fill="#f2f2f2"/><path d="M570.879,346.679,454.515,376.633a2.731,2.731,0,0,1-3.308-1.719,2.631,2.631,0,0,1,1.853-3.339l117.733-30.306c3.135,1.589,2.31,4.838.087,5.41Z" transform="translate(-310.999 -139.037)" fill="#f2f2f2"/><path d="M447.987,469.723a2.015,2.015,0,0,1-1.274-.088l-.025-.01-5.291-2.243a2.029,2.029,0,0,1,1.587-3.734l3.429,1.458,4.493-10.569a2.028,2.028,0,0,1,2.659-1.073h0l-.027.069.028-.069a2.03,2.03,0,0,1,1.072,2.66l-5.286,12.427a2.029,2.029,0,0,1-1.365,1.168Z" transform="translate(-310.999 -139.037)" fill="#fff"/><path d="M773.475,603.715h-258a33.037,33.037,0,0,1-33-33v-303a33.037,33.037,0,0,1,33-33H755.5l50.973,40.629V570.715a33.037,33.037,0,0,1-33,33Z" transform="translate(-310.999 -139.037)" fill="#e6e6e6"/><path d="M515.474,244.215a23.527,23.527,0,0,0-23.5,23.5v303a23.527,23.527,0,0,0,23.5,23.5h258a23.527,23.527,0,0,0,23.5-23.5V279.92l-44.8-35.706Z" transform="translate(-310.999 -139.037)" fill="#fff"/><path d="M723.294,332.319H605.83a5.5,5.5,0,1,1,0-10.991H723.294a5.5,5.5,0,1,1,0,10.991Z" transform="translate(-310.999 -139.037)" fill="#00b0ff"/><path d="M745.962,350.866H605.83a5.5,5.5,0,1,1,0-10.991H745.962a5.5,5.5,0,0,1,0,10.991Z" transform="translate(-310.999 -139.037)" fill="#00b0ff"/><path d="M723.294,404.443H605.834a5.495,5.495,0,1,0,0,10.99h117.46a5.5,5.5,0,0,0,0-10.99Z" transform="translate(-310.999 -139.037)" fill="#ccc"/><path d="M745.964,422.993H605.834a5.495,5.495,0,0,0,0,10.99h140.13a5.495,5.495,0,0,0,0-10.99Z" transform="translate(-310.999 -139.037)" fill="#ccc"/><path d="M723.294,498.554H605.83a5.5,5.5,0,1,1,0-10.991H723.294a5.5,5.5,0,1,1,0,10.991Z" transform="translate(-310.999 -139.037)" fill="#ccc"/><path d="M745.962,517.1H605.83a5.5,5.5,0,1,1,0-10.991H745.962a5.5,5.5,0,0,1,0,10.991Z" transform="translate(-310.999 -139.037)" fill="#ccc"/><circle cx="19.423" cy="19.423" r="19.423" transform="translate(226.493 177.637)" fill="#00b0ff"/><path d="M554.99,343.506a2.014,2.014,0,0,1-1.212-.4l-.022-.016-4.565-3.492a2.029,2.029,0,0,1,2.468-3.22l2.957,2.267,6.987-9.115a2.028,2.028,0,0,1,2.843-.376h0l-.043.06.045-.06a2.03,2.03,0,0,1,.375,2.843l-8.218,10.716a2.029,2.029,0,0,1-1.613.791Z" transform="translate(-310.999 -139.037)" fill="#fff"/><path d="M578.334,419.213a19.423,19.423,0,0,1-19.42,19.43,4.177,4.177,0,0,1-.5-.02,19.422,19.422,0,1,1,19.92-19.41Z" transform="translate(-310.999 -139.037)" fill="#ccc"/><circle cx="19.423" cy="19.423" r="19.423" transform="translate(226.493 343.872)" fill="#ccc"/><path d="M805.482,276.651H765.553a10.991,10.991,0,0,1-10.991-10.991V236.169a.687.687,0,0,1,1.113-.538l50.233,39.795a.687.687,0,0,1-.427,1.225Z" transform="translate(-310.999 -139.037)" fill="#ccc"/><path d="M578.334,419.213a19.423,19.423,0,0,1-19.42,19.43,4.177,4.177,0,0,1-.5-.02,42.051,42.051,0,0,1,3.77-38.56A19.433,19.433,0,0,1,578.334,419.213Z" transform="translate(-310.999 -139.037)" fill="#00b0ff"/><path d="M600.334,409.943a5.51,5.51,0,0,1,5.5-5.5H635.1a41.573,41.573,0,0,1,3.61,10.99h-32.88a5.5,5.5,0,0,1-5.5-5.489Z" transform="translate(-310.999 -139.037)" fill="#00b0ff"/><path d="M639.394,422.993a41.926,41.926,0,0,1-1.46,10.99h-32.1a5.495,5.495,0,0,1,0-10.99Z" transform="translate(-310.999 -139.037)" fill="#00b0ff"/><path d="M711.816,490.77a6,6,0,0,1-8.247,2l-70-42.7a6,6,0,1,1,6.249-10.245l70,42.7a6,6,0,0,1,2,8.247Z" transform="translate(-310.999 -139.037)" fill="#2111ab"/><path d="M641.811,448.07A48,48,0,1,1,625.828,382.1a48,48,0,0,1,15.983,65.974ZM570.1,404.328a36,36,0,1,0,49.48-11.987,36,36,0,0,0-49.48,11.987Z" transform="translate(-310.999 -139.037)" fill="#2111ab"/><circle cx="24.561" cy="24.561" r="24.561" transform="translate(460.042 242.612)" fill="#dc99a2"/><path d="M794.015,543.9a11,11,0,0,1,8.323-14.151,10.464,10.464,0,0,1,1.459-.18l25.872-41.523L806.036,465.58a9.432,9.432,0,1,1,13.121-13.553L851.786,484.2l.066.08a8.545,8.545,0,0,1-.594,10.185l-36.25,42.873a10.31,10.31,0,0,1,.27,1.046A11,11,0,0,1,805.4,551.5q-.468.041-.932.041A11.037,11.037,0,0,1,794.015,543.9Z" transform="translate(-310.999 -139.037)" fill="#dc99a2"/><path d="M444.151,609h-12.26l-5.832-47.288h18.094Z" fill="#dc99a2"/><path d="M758.277,759.922H718.746v-.5a15.386,15.386,0,0,1,15.387-15.386h24.145Z" transform="translate(-310.999 -139.037)" fill="#2111ab" stroke="#f1ebeb" stroke-width="1"/><path d="M566.007,592.05l-10.534,6.272-29.205-37.646,15.547-9.257Z" fill="#dc99a2"/><path d="M885.772,739.7l-33.966,20.223-.256-.43A15.386,15.386,0,0,1,856.9,738.4h0l20.745-12.352Z" transform="translate(-310.999 -139.037)" fill="#2111ab" stroke="#f2ebeb" stroke-width="1"/><path d="M735.512,727.213c-8.213-96.706-13.1-186.545,16.924-223.193l.232-.284,50.526,20.211.083.181c.17.371,16.974,37.333,13.054,62.194l12.463,57.327L869.43,711.69a4.5,4.5,0,0,1-2.051,6.428l-17.659,7.77a4.521,4.521,0,0,1-5.648-1.766l-44.2-72.08L774.9,596.756a1.5,1.5,0,0,0-2.859.459l-13.84,130.1a4.492,4.492,0,0,1-4.475,4.025H740a4.53,4.53,0,0,1-4.486-4.122Z" transform="translate(-310.999 -139.037)" fill="#2111ab" stroke="#f8f2f2" stroke-width="1"/><path d="M752.606,504.786l-.241-.115-.038-.265c-1.887-13.21.347-27.888,6.64-43.625a34.636,34.636,0,0,1,40.2-20.743h0A34.594,34.594,0,0,1,821.23,457a34.221,34.221,0,0,1,2.373,27.425c-7.934,23.2-18.226,44.907-18.329,45.124l-.216.453Z" transform="translate(-310.999 -139.037)" fill="#00b0ff"/><path d="M697.48,471.883a11,11,0,0,1,16.17,2.839,10.48,10.48,0,0,1,.679,1.3l47.954,9.692,12.768-30a9.432,9.432,0,1,1,17.29,7.544l-18.71,41.83-.052.09a8.545,8.545,0,0,1-9.748,3.01l-52.853-18.941a10.311,10.311,0,0,1-.885.619,11,11,0,0,1-15.744-4.656q-.2-.424-.365-.859a11.037,11.037,0,0,1,3.5-12.468Z" transform="translate(-310.999 -139.037)" fill="#dc99a2"/><path d="M884.331,432.512c-2.366-4.192-5.812-8.031-10.369-9.581-5.885-2-12.257.13-18.307,1.552-4.662,1.1-9.532,1.767-14.231.842s-9.23-3.659-11.368-7.944c-3.145-6.3-.5-13.821-.687-20.863a25.334,25.334,0,0,0-31.923-23.811c-5.793-1.672-11.039-1.827-14.623,2.627a17,17,0,0,0-17,17h16.255a16.15,16.15,0,0,0,2.454,11.931c2.87,4.216,7.859,7.265,8.82,12.274.931,4.854-2.368,9.459-5.829,12.987s-7.475,7.024-8.556,11.846a14.689,14.689,0,0,0,2.1,10.565,34.4,34.4,0,0,0,7.386,8.136,108.4,108.4,0,0,0,45.038,23.04c11.7,2.818,24.506,3.548,35.371-1.635a35.125,35.125,0,0,0,15.465-48.967Z" transform="translate(-310.999 -139.037)" fill="#2111ab" stroke="#fcf6f6" stroke-width="1"/><path d="M888,760.963H698a1,1,0,0,1,0-2H888a1,1,0,0,1,0,2Z" transform="translate(-310.999 -139.037)" fill="#ccc"/></g></svg>