<svg xmlns="http://www.w3.org/2000/svg" width="256" height="249.681" viewBox="0 0 256 249.681">
    <path d="M128,0A128.015,128.015,0,0,0,87.535,249.461c6.4,1.185,8.746-2.777,8.746-6.158,0-3.052-.119-13.135-.174-23.831-35.61,7.743-43.124-15.1-43.124-15.1C47.16,189.575,38.77,185.641,38.77,185.641c-11.614-7.945.875-7.782.875-7.782,12.853.9,19.622,13.191,19.622,13.191,11.416,19.568,29.944,13.911,37.249,10.64,1.149-8.272,4.466-13.919,8.127-17.116-28.431-3.236-58.318-14.212-58.318-63.258A49.538,49.538,0,0,1,59.513,86.958c-1.329-3.224-5.71-16.243,1.24-33.874,0,0,10.749-3.44,35.209,13.121a121.412,121.412,0,0,1,64.1,0c24.431-16.561,35.165-13.121,35.165-13.121,6.967,17.631,2.584,30.65,1.255,33.874a49.441,49.441,0,0,1,13.173,34.358c0,49.163-29.944,59.988-58.447,63.157,4.591,3.972,8.682,11.762,8.682,23.7,0,17.126-.148,30.91-.148,35.126,0,3.407,2.3,7.4,8.792,6.141A128.019,128.019,0,0,0,128,0ZM47.941,182.34c-.282.636-1.282.827-2.194.39-.928-.417-1.45-1.284-1.149-1.922.276-.655,1.278-.838,2.2-.4C47.733,180.827,48.263,181.7,47.941,182.34Zm6.3,5.618c-.611.566-1.8.3-2.614-.591-.837-.892-.994-2.086-.375-2.66s1.787-.3,2.626.591S54.875,187.386,54.237,187.958Zm4.319,7.188c-.784.545-2.067.034-2.859-1.1s-.784-2.5.017-3.05,2.058-.055,2.861,1.074C59.357,193.224,59.357,194.589,58.556,195.146Zm7.305,8.325c-.7.774-2.2.566-3.29-.489-1.119-1.033-1.431-2.5-.727-3.271s2.213-.558,3.315.49C66.271,201.231,66.61,202.706,65.861,203.471Zm9.441,2.811c-.31,1-1.749,1.458-3.2,1.032s-2.4-1.613-2.1-2.626,1.747-1.484,3.207-1.028C74.654,204.1,75.6,205.262,75.3,206.282Zm10.744,1.192c.036,1.055-1.193,1.931-2.715,1.95s-2.768-.821-2.785-1.859c0-1.066,1.2-1.933,2.732-1.959S86.047,206.424,86.047,207.474Zm10.555-.4c.182,1.03-.875,2.088-2.387,2.37-1.486.271-2.862-.365-3.05-1.386-.184-1.056.892-2.114,2.376-2.387C95.055,205.4,96.409,206.022,96.6,207.069Z" fill="#161614"/>
</svg>