<svg xmlns="http://www.w3.org/2000/svg" width="256" height="256" viewBox="0 0 256 256">
    <path d="M128,23.063c34.177,0,38.225.13,51.722.746,12.48.57,19.258,2.655,23.769,4.407a39.666,39.666,0,0,1,14.717,9.575,39.662,39.662,0,0,1,9.575,14.718c1.753,4.511,3.838,11.288,4.408,23.768.615,13.5.745,17.546.745,51.723s-.13,38.226-.745,51.723c-.57,12.48-2.655,19.257-4.408,23.768a42.385,42.385,0,0,1-24.292,24.292c-4.511,1.753-11.289,3.839-23.769,4.408-13.495.616-17.543.746-51.722.746s-38.228-.13-51.723-.746c-12.48-.569-19.257-2.655-23.768-4.408a39.645,39.645,0,0,1-14.718-9.574,39.661,39.661,0,0,1-9.575-14.718c-1.753-4.511-3.838-11.288-4.408-23.768-.616-13.5-.746-17.545-.746-51.723s.13-38.225.746-51.723c.57-12.48,2.655-19.257,4.408-23.768a39.657,39.657,0,0,1,9.575-14.718,39.664,39.664,0,0,1,14.718-9.575c4.51-1.752,11.288-3.838,23.767-4.407,13.5-.616,17.546-.746,51.724-.746M128,0C93.237,0,88.878.147,75.226.77,61.6,1.392,52.3,3.556,44.155,6.72A62.743,62.743,0,0,0,21.483,21.484,62.743,62.743,0,0,0,6.72,44.155C3.555,52.3,1.392,61.6.77,75.226.147,88.878,0,93.237,0,128s.147,39.122.77,52.774C1.392,194.4,3.555,203.7,6.72,211.845a62.748,62.748,0,0,0,14.764,22.672A62.737,62.737,0,0,0,44.155,249.28c8.142,3.165,17.447,5.328,31.071,5.95,13.653.623,18.011.77,52.774.77s39.122-.147,52.774-.77c13.624-.622,22.929-2.785,31.071-5.95a65.449,65.449,0,0,0,37.435-37.435c3.164-8.142,5.328-17.446,5.95-31.071.623-13.652.77-18.011.77-52.774s-.147-39.122-.77-52.774c-.622-13.625-2.786-22.929-5.95-31.071a62.74,62.74,0,0,0-14.764-22.671A62.744,62.744,0,0,0,211.845,6.72C203.7,3.556,194.4,1.392,180.774.77,167.122.147,162.763,0,128,0Zm0,62.27A65.73,65.73,0,1,0,193.73,128,65.73,65.73,0,0,0,128,62.27Zm0,108.4A42.667,42.667,0,1,1,170.667,128,42.668,42.668,0,0,1,128,170.667ZM211.686,59.673a15.36,15.36,0,1,1-15.359-15.36A15.359,15.359,0,0,1,211.686,59.673Z" fill="#0a0a08"/>
</svg>